<svg viewBox="0 0 256 256" xmlns="http://www.w3.org/2000/svg">
  <defs>
    <linearGradient id="brass" x1="0%" y1="0%" x2="100%" y2="100%">
      <stop offset="0%" style="stop-color:#d4af37"/>
      <stop offset="50%" style="stop-color:#b8860b"/>
      <stop offset="100%" style="stop-color:#8b6914"/>
    </linearGradient>
    <linearGradient id="copper" x1="0%" y1="0%" x2="0%" y2="100%">
      <stop offset="0%" style="stop-color:#e6ac6e"/>
      <stop offset="100%" style="stop-color:#a0522d"/>
    </linearGradient>
    <radialGradient id="amber" cx="50%" cy="50%" r="50%">
      <stop offset="0%" style="stop-color:#ffd700;stop-opacity:0.9"/>
      <stop offset="100%" style="stop-color:#ff8c00;stop-opacity:0.3"/>
    </radialGradient>
    <filter id="glow"><feGaussianBlur stdDeviation="2" result="b"/><feMerge><feMergeNode in="b"/><feMergeNode in="SourceGraphic"/></feMerge></filter>
  </defs>
  <rect width="256" height="256" fill="#1a1510" rx="128"/>
  <ellipse cx="128" cy="140" rx="70" ry="55" fill="url(#brass)" stroke="#5c4033" stroke-width="2"/>
  <circle cx="128" cy="140" r="40" fill="none" stroke="#5c4033" stroke-width="1.5"/>
  <circle cx="128" cy="140" r="25" fill="none" stroke="#5c4033" stroke-width="1"/>
  <circle cx="128" cy="140" r="12" fill="#6b4423"/>
  <line x1="95" y1="105" x2="85" y2="72" stroke="url(#copper)" stroke-width="4" stroke-linecap="round"/>
  <line x1="161" y1="105" x2="171" y2="72" stroke="url(#copper)" stroke-width="4" stroke-linecap="round"/>
  <circle cx="85" cy="68" r="14" fill="url(#brass)" stroke="#5c4033" stroke-width="2"/>
  <circle cx="171" cy="68" r="14" fill="url(#brass)" stroke="#5c4033" stroke-width="2"/>
  <circle cx="85" cy="68" r="9" fill="url(#amber)" filter="url(#glow)"/>
  <circle cx="171" cy="68" r="9" fill="url(#amber)" filter="url(#glow)"/>
  <circle cx="87" cy="68" r="3.5" fill="#1a1510"/>
  <circle cx="173" cy="68" r="3.5" fill="#1a1510"/>
  <circle cx="88" cy="66" r="1.5" fill="#fff" opacity="0.7"/>
  <circle cx="174" cy="66" r="1.5" fill="#fff" opacity="0.7"/>
  <g transform="translate(62,155) rotate(-12)">
    <ellipse cx="0" cy="0" rx="18" ry="26" fill="url(#brass)" stroke="#5c4033" stroke-width="2"/>
    <line x1="-6" y1="-18" x2="-4" y2="18" stroke="#2a2010" stroke-width="2"/>
    <line x1="6" y1="-18" x2="4" y2="18" stroke="#2a2010" stroke-width="2"/>
    <circle cx="0" cy="-22" r="3" fill="#6b4423"/>
  </g>
  <g transform="translate(194,155) rotate(12)">
    <ellipse cx="0" cy="0" rx="18" ry="26" fill="url(#brass)" stroke="#5c4033" stroke-width="2"/>
    <line x1="-6" y1="-18" x2="-4" y2="18" stroke="#2a2010" stroke-width="2"/>
    <line x1="6" y1="-18" x2="4" y2="18" stroke="#2a2010" stroke-width="2"/>
    <circle cx="0" cy="-22" r="3" fill="#6b4423"/>
  </g>
  <text x="128" y="245" font-family="serif" font-size="11" font-weight="bold" fill="#d4af37" text-anchor="middle" letter-spacing="3">CCC</text>
</svg>